<svg width="24" height="24" viewBox="0 0 24 24" fill="none" xmlns="http://www.w3.org/2000/svg">
<g id="Filled / Maps / Globe">
<g id="Globe">
<path id="Vector" d="M21.1744 15.3009C21.1884 15.2687 21.2001 15.2356 21.2094 15.2018C21.9305 13.1273 21.9302 10.8701 21.2084 8.79577C21.1994 8.76356 21.1883 8.73199 21.1751 8.70127C20.4941 6.81422 19.2484 5.18268 17.6075 4.02845C15.9666 2.87422 14.0101 2.25331 12.0039 2.25014L12 2.2467L11.9961 2.25014C9.99007 2.25331 8.03371 2.8741 6.39291 4.02812C4.75211 5.18214 3.50646 6.81342 2.82527 8.70021C2.81165 8.73171 2.80023 8.76412 2.79108 8.7972C2.06922 10.8728 2.06965 13.1313 2.79231 15.2066C2.80103 15.2375 2.81174 15.2678 2.82436 15.2973C3.50514 17.1847 4.75074 18.8167 6.39174 19.9712C8.03274 21.1258 9.98952 21.7469 11.996 21.75L12 21.7536L12.004 21.75C14.0098 21.7469 15.966 21.1262 17.6067 19.9723C19.2474 18.8185 20.4931 17.1874 21.1744 15.3009V15.3009ZM12 4.27121C13.0886 5.39921 13.9067 6.75973 14.3927 8.2501H9.60727C10.0933 6.75973 10.9114 5.39921 12 4.27121V4.27121ZM9.60731 15.7501H14.3927C13.9067 17.2404 13.0886 18.601 12 19.729C10.9114 18.601 10.0933 17.2404 9.60731 15.7501V15.7501ZM9.21464 14.2501C8.92845 12.7637 8.92845 11.2364 9.21464 9.75009H14.7854C15.0715 11.2364 15.0715 12.7637 14.7854 14.2501H9.21464ZM16.3152 9.75009H19.9381C20.354 11.2213 20.354 12.7789 19.9381 14.2501H16.3152C16.5616 12.7602 16.5616 11.24 16.3152 9.75009V9.75009ZM19.3474 8.25009H15.9757C15.5267 6.66965 14.7565 5.19881 13.7133 3.9295C14.914 4.1868 16.0425 4.70796 17.0169 5.45524C17.9914 6.20251 18.7874 7.15718 19.3474 8.25009H19.3474ZM13.7132 20.0707C14.7564 18.8014 15.5266 17.3305 15.9757 15.7501H19.3474C18.7874 16.843 17.9914 17.7977 17.0169 18.545C16.0425 19.2922 14.914 19.8134 13.7132 20.0707V20.0707Z" fill="#333333"/>
</g>
</g>
</svg>
