<svg width="24" height="25" viewBox="0 0 24 25" fill="none" xmlns="http://www.w3.org/2000/svg">
<path id="Vector" fill-rule="evenodd" clip-rule="evenodd" d="M12 0C5.23944 0 0 5.15852 0 12.1254C0 15.7698 1.43421 18.9188 3.76901 21.0943C3.96459 21.2779 4.0829 21.532 4.09256 21.8061L4.15775 24.0295C4.17948 24.7387 4.88209 25.199 5.50503 24.9148L7.88571 23.8207C8.08853 23.7277 8.31308 23.7101 8.52555 23.7704C9.61932 24.0848 10.7855 24.2508 12 24.2508C18.7606 24.2508 24 19.0923 24 12.1254C24 5.15852 18.7606 0 12 0ZM19.2048 9.32859L15.6797 15.1536C15.1195 16.0792 13.9171 16.3106 13.0769 15.6541L10.2736 13.4635C10.0153 13.2622 9.66278 13.2648 9.40684 13.466L5.62093 16.459C5.1163 16.8589 4.45473 16.2276 4.79517 15.6692L8.32032 9.84419C8.88048 8.91862 10.0829 8.68723 10.9231 9.34368L13.7264 11.5344C13.9847 11.7356 14.3372 11.733 14.5932 11.5318L18.3791 8.53884C18.8837 8.13894 19.5453 8.77023 19.2048 9.32859V9.32859Z" fill="white"/>
</svg>
