<svg width="24" height="24" viewBox="0 0 24 24" fill="none" xmlns="http://www.w3.org/2000/svg">
<g id="Frame">
<g id="Group">
<path id="Vector" d="M9.6544 15.6402C12.9632 15.6402 15.6455 12.9585 15.6455 9.65045C15.6455 6.34238 12.9632 3.66066 9.6544 3.66066C6.34563 3.66066 3.66334 6.34238 3.66334 9.65045C3.66334 12.9585 6.34563 15.6402 9.6544 15.6402ZM9.6544 17.6368C5.24271 17.6368 1.66632 14.0612 1.66632 9.65045C1.66632 5.23969 5.24271 1.66406 9.6544 1.66406C14.0661 1.66406 17.6425 5.23969 17.6425 9.65045C17.6425 14.0612 14.0661 17.6368 9.6544 17.6368ZM22.3426 20.9241L20.9305 22.3359L15.9379 17.3444L17.35 15.9326L22.3426 20.9241Z" fill="white"/>
</g>
</g>
</svg>
