<svg width="25" height="25" viewBox="0 0 25 25" fill="none" xmlns="http://www.w3.org/2000/svg">
<g id="Social Media / Linkedin">
<rect id="Logo Container" width="25" height="25" rx="12.5" fill="#006699"/>
<g id="Group">
<path id="Vector" d="M9.62438 17.5659V10.8127H7.3817V17.5659H9.62461H9.62438ZM8.50351 9.89081C9.28541 9.89081 9.7722 9.37224 9.7722 8.72418C9.75756 8.06135 9.28541 7.55725 8.51838 7.55725C7.75082 7.55725 7.24951 8.06135 7.24951 8.72412C7.24951 9.37218 7.73612 9.89075 8.48881 9.89075H8.50333L8.50351 9.89081ZM10.8657 17.5659H13.1082V13.795C13.1082 13.5934 13.1229 13.3913 13.1821 13.2474C13.3442 12.8439 13.7132 12.4263 14.3328 12.4263C15.1441 12.4263 15.4689 13.0456 15.4689 13.9535V17.5659H17.7113V13.6938C17.7113 11.6196 16.6051 10.6544 15.1296 10.6544C13.9199 10.6544 13.3886 11.3311 13.0935 11.792H13.1084V10.8129H10.8658C10.8951 11.4465 10.8657 17.5661 10.8657 17.5661L10.8657 17.5659Z" fill="white"/>
</g>
</g>
</svg>
