<svg width="25" height="25" viewBox="0 0 25 25" fill="none" xmlns="http://www.w3.org/2000/svg">
<g id="Social Media / Twitter">
<rect id="Logo Container" width="25" height="25" rx="12.5" fill="#33CCFF"/>
<g id="Capa 2">
<g id="ELEMENTS">
<path id="Vector" d="M18.7047 8.542C18.2919 8.7198 17.858 8.84362 17.4136 8.91038C17.6213 8.87473 17.9271 8.50041 18.0488 8.34889C18.2336 8.12035 18.3745 7.85945 18.4643 7.57945C18.4643 7.55865 18.4851 7.52894 18.4643 7.51409C18.4538 7.50837 18.4421 7.50537 18.4302 7.50537C18.4182 7.50537 18.4065 7.50837 18.396 7.51409C17.9135 7.77565 17.3999 7.97528 16.8674 8.10825C16.8489 8.11393 16.8291 8.11444 16.8103 8.10973C16.7915 8.10502 16.7743 8.09526 16.7606 8.08152C16.7191 8.03212 16.6745 7.98548 16.627 7.94189C16.4098 7.74713 16.1634 7.58774 15.8968 7.46952C15.5369 7.32175 15.1482 7.25775 14.76 7.28236C14.3833 7.30617 14.0155 7.4073 13.6796 7.57945C13.3487 7.76094 13.058 8.00751 12.8247 8.30433C12.5794 8.60984 12.4023 8.96438 12.3053 9.34412C12.2253 9.70533 12.2162 10.0787 12.2786 10.4433C12.2786 10.5057 12.2786 10.5146 12.2252 10.5057C10.1088 10.1938 8.37243 9.44216 6.95363 7.829C6.8913 7.7577 6.85865 7.7577 6.80819 7.829C6.1908 8.76778 6.49059 10.2532 7.26232 10.987C7.36621 11.085 7.47306 11.1801 7.58586 11.2692C7.23202 11.2441 6.88683 11.1481 6.57073 10.987C6.51137 10.9484 6.47872 10.9692 6.47575 11.0405C6.46733 11.1393 6.46733 11.2387 6.47575 11.3376C6.53768 11.8113 6.72421 12.26 7.01626 12.638C7.30831 13.0159 7.69539 13.3094 8.13794 13.4884C8.24582 13.5347 8.35823 13.5695 8.47335 13.5924C8.14578 13.657 7.80983 13.667 7.479 13.6221C7.40776 13.6073 7.38105 13.6459 7.40776 13.7142C7.84409 14.9026 8.79094 15.265 9.4855 15.467C9.58048 15.4819 9.67547 15.4819 9.78232 15.5056C9.78232 15.5056 9.78232 15.5056 9.76451 15.5235C9.55971 15.8978 8.73158 16.1503 8.35165 16.281C7.65818 16.5303 6.91882 16.6256 6.18487 16.5603C6.06911 16.5425 6.04239 16.5454 6.01271 16.5603C5.98303 16.5751 6.01271 16.6078 6.04536 16.6375C6.19377 16.7356 6.34218 16.8217 6.49653 16.9049C6.95602 17.1557 7.44179 17.355 7.94501 17.4991C10.5511 18.218 13.4837 17.6892 15.4397 15.7433C16.9772 14.2163 17.5175 12.11 17.5175 10.0007C17.5175 9.92047 17.6154 9.87293 17.6718 9.83134C18.0608 9.52799 18.4037 9.16973 18.6899 8.76778C18.7394 8.70786 18.7649 8.63158 18.7611 8.55388C18.7611 8.50932 18.7611 8.51823 18.7047 8.542Z" fill="white"/>
</g>
</g>
</g>
</svg>
