<svg width="25" height="25" viewBox="0 0 25 25" fill="none" xmlns="http://www.w3.org/2000/svg">
<g id="Social Media / Youtube">
<rect id="Logo Container" width="25" height="25" rx="12.5" fill="#FF0000"/>
<g id="Vector">
<path d="M19.4533 9.06136C19.2901 8.44773 18.8072 7.96364 18.1929 7.79773C17.0821 7.5 12.6252 7.5 12.6252 7.5C12.6252 7.5 8.1707 7.5 7.05763 7.79773C6.44556 7.96136 5.9627 8.44545 5.79721 9.06136C5.50024 10.175 5.50024 12.5 5.50024 12.5C5.50024 12.5 5.50024 14.825 5.79721 15.9386C5.96043 16.5523 6.44329 17.0364 7.05763 17.2023C8.1707 17.5 12.6252 17.5 12.6252 17.5C12.6252 17.5 17.0821 17.5 18.1929 17.2023C18.8049 17.0386 19.2878 16.5545 19.4533 15.9386C19.7502 14.825 19.7502 12.5 19.7502 12.5C19.7502 12.5 19.7502 10.175 19.4533 9.06136Z" fill="white"/>
<path d="M11.2016 14.6432L14.9035 12.5L11.2016 10.3568V14.6432Z" fill="#FF0000"/>
</g>
</g>
</svg>
