<svg width="41" height="34" viewBox="0 0 41 34" fill="none" xmlns="http://www.w3.org/2000/svg">
<g id="Group">
<path id="Vector" d="M24.1999 0.917743C24.1267 0.803023 24.0096 0.731323 23.8632 0.731323H17.0263C16.9531 0.731323 16.836 0.803023 16.7189 0.917743L0.43919 32.7811C0.39527 32.8958 0.39527 33.0105 0.43919 33.1109C0.51239 33.2543 0.62951 33.2973 0.77591 33.2973H6.99791C7.11503 33.2973 7.23215 33.2256 7.33463 33.0679L20.3789 7.60016C20.4521 7.45676 20.5253 7.45676 20.6131 7.60016L33.6281 33.0679C33.7013 33.2113 33.7745 33.2973 33.9355 33.2973H40.2014C40.3186 33.2973 40.4357 33.2543 40.5089 33.1109C40.5821 32.9962 40.5821 32.8815 40.5089 32.7811L24.1999 0.917743Z" fill="#E6D090"/>
<path id="Vector_2" d="M11.6243 24.7221C20.5401 16.9928 23.9073 27.4753 29.895 23.2594C29.895 23.2594 31.0223 23.5605 30.2171 24.2775C21.1257 32.3796 18.8272 21.5386 10.4238 27.0451L11.6243 24.7221Z" fill="#E6D090"/>
</g>
</svg>
