<svg width="45" height="42" viewBox="0 0 45 42" fill="none" xmlns="http://www.w3.org/2000/svg">
<path id="Vector" d="M44.543 40.6715L23.4279 19.5209C23.3397 19.3438 23.3397 19.2375 23.4279 19.1135L41.4384 1.31088C41.4913 1.22231 41.5266 1.13374 41.4913 1.02745C41.4384 0.938884 41.3502 0.885742 41.262 0.885742H31.1366C31.0837 0.885742 30.9955 0.938884 30.9955 0.938884L8.32809 23.3826C8.27517 23.4357 8.18697 23.4711 8.09877 23.4711C7.92237 23.4711 7.81653 23.3826 7.81653 23.1523V1.36402C7.81653 1.04517 7.6754 0.903456 7.4108 0.903456H0.67233C0.39009 0.903456 0.266602 1.04517 0.266602 1.36402V40.6892C0.266602 41.0081 0.40773 41.1498 0.67233 41.1498H7.4108C7.69304 41.1498 7.81653 41.0081 7.81653 40.6892V34.7196C7.81653 34.5779 7.86945 34.5424 7.90473 34.4893L17.6067 24.8706C17.6949 24.782 17.7478 24.782 17.836 24.782C17.889 24.782 17.9772 24.782 18.0654 24.8706L34.3647 41.0612C34.4529 41.1143 34.5058 41.1498 34.5411 41.1498H44.349C44.4372 41.1498 44.4901 41.0966 44.5783 40.9726C44.6312 40.8663 44.6312 40.7601 44.543 40.6715Z" fill="#E6D090"/>
</svg>
