<svg width="47" height="42" viewBox="0 0 47 42" fill="none" xmlns="http://www.w3.org/2000/svg">
<path id="Vector" d="M45.1204 24.7819C44.2913 23.4534 43.2506 22.3374 41.9099 21.434C40.5869 20.566 39.0699 19.822 37.4294 19.326C35.7359 18.8123 33.9896 18.4049 32.2608 18.1392C30.4792 17.8558 28.7858 17.6786 27.0923 17.6255C25.3989 17.5369 23.8818 17.4838 22.5059 17.4838C18.0606 17.4838 14.5326 17.1649 11.9748 16.4741C9.41705 15.7301 8.12933 14.6318 8.12933 13.073C8.12933 12.5238 8.30573 11.9216 8.72909 11.2838C9.09953 10.6461 9.87568 10.097 11.0576 9.53016C12.2042 8.98102 13.8447 8.5736 15.9968 8.2016C18.0959 7.82961 20.9007 7.65247 24.3228 7.65247C26.422 7.65247 28.4859 7.79418 30.4086 8.11303C32.3314 8.48503 34.0778 8.85702 35.683 9.35302C37.3235 9.81358 38.6994 10.3273 39.899 10.8764C41.0808 11.3901 41.9981 11.8861 42.6861 12.2581C42.739 12.2581 42.739 12.3113 42.7743 12.3113C42.7743 12.3644 42.8272 12.3644 42.8272 12.3644C43.1094 12.3644 43.1976 12.2227 43.1094 11.9924L42.5626 3.80852C42.5626 3.63138 42.5097 3.57824 42.4215 3.57824C42.104 3.43652 41.5042 3.17081 40.4987 2.74568C39.4932 2.37368 38.2055 1.96626 36.6532 1.59426C35.048 1.18684 33.2663 0.814846 31.2024 0.495993C29.0856 0.141712 26.7924 0 24.3228 0C21.571 0 18.7839 0.17714 15.9438 0.602278C13.1038 0.974272 10.546 1.66512 8.28809 2.62168C5.99489 3.59595 4.12505 4.9245 2.69621 6.62505C1.23209 8.3256 0.491211 10.4867 0.491211 13.0553C0.491211 13.6044 0.579411 14.2598 0.667611 15.0747C0.755811 15.8541 1.07332 16.7221 1.53196 17.6078C1.9906 18.5289 2.67857 19.3969 3.59585 20.318C4.56605 21.186 5.83612 21.9654 7.44136 22.7094C9.08188 23.4003 11.1105 24.0025 13.5272 24.4631C15.9968 24.8705 18.9779 25.1008 22.453 25.1008C25.293 25.1008 27.7274 25.1894 29.6854 25.4197C31.6611 25.6499 33.2487 25.9688 34.5893 26.3408C35.8241 26.7128 36.7943 27.1733 37.3764 27.6693C37.9233 28.183 38.2408 28.679 38.2408 29.2282C38.2408 30.787 37.0413 32.027 34.6246 32.9481C32.2432 33.8693 28.9445 34.3652 24.7286 34.3652C21.4828 34.3652 18.5898 34.135 16.032 33.7275C13.4742 33.3201 11.2163 32.8064 9.34649 32.2573C7.42373 31.7081 5.87141 31.159 4.67189 30.5567C3.43709 30.0076 2.57272 29.6002 2.06116 29.2636C2.00824 29.2636 2.00824 29.2636 1.97296 29.2636C1.97296 29.2105 1.92005 29.2105 1.92005 29.2105C1.74365 29.2105 1.63781 29.3522 1.63781 29.5825L2.46689 38.0852C2.46689 38.1738 2.51981 38.2269 2.60801 38.3155C2.92553 38.4572 3.66641 38.7229 4.81301 39.0949C5.90669 39.5023 7.42372 39.9275 9.29356 40.3349C11.1634 40.7423 13.4213 41.1143 15.9791 41.4331C18.5898 41.8051 21.4828 41.9469 24.7286 41.9469C28.0272 41.9469 30.8144 41.7166 33.1605 41.2029C35.5419 40.6892 37.5176 40.0515 39.0699 39.272C40.6751 38.4926 41.9628 37.6246 42.9154 36.6504C43.8856 35.6761 44.5559 34.7727 45.0675 33.8515C45.5791 32.9304 45.8966 32.0624 46.0377 31.283C46.1788 30.5036 46.267 29.9013 46.267 29.4939C46.3023 27.6871 45.8966 26.1282 45.1204 24.7819Z" fill="#E6D090"/>
</svg>
