<svg width="50" height="42" viewBox="0 0 50 42" fill="none" xmlns="http://www.w3.org/2000/svg">
<g id="Group">
<path id="Vector" d="M29.5356 1.1336C29.4474 0.991891 29.3063 0.90332 29.1299 0.90332H20.892C20.8038 0.90332 20.6627 0.991891 20.5216 1.1336L0.905901 40.4942C0.852981 40.6359 0.852981 40.7776 0.905901 40.9016C0.994101 41.0788 1.13522 41.1319 1.31162 41.1319H8.80862C8.94974 41.1319 9.09086 41.0433 9.21434 40.8485L24.9316 9.38835C25.0198 9.21121 25.108 9.21121 25.2138 9.38835L40.8958 40.8485C40.984 41.0256 41.0722 41.1319 41.2662 41.1319H48.8161C48.9573 41.1319 49.0984 41.0788 49.1866 40.9016C49.2748 40.7599 49.2748 40.6182 49.1866 40.4942L29.5356 1.1336Z" fill="#E6D090"/>
<path id="Vector_2" d="M14.383 30.5389C25.1258 20.991 29.183 33.94 36.3977 28.7321C36.3977 28.7321 37.756 29.1041 36.7858 29.9898C25.8314 39.9982 23.0619 26.6064 12.9365 33.4086L14.383 30.5389Z" fill="#E6D090"/>
</g>
</svg>
