<svg width="16" height="12" viewBox="0 0 16 12" fill="none" xmlns="http://www.w3.org/2000/svg">
<g id="Vector">
<path d="M15.6666 1.87364C15.4833 1.13727 14.9411 0.556364 14.2514 0.357273C13.0041 1.17176e-07 8 0 8 0C8 0 2.99841 1.17176e-07 1.74865 0.357273C1.06141 0.553636 0.519249 1.13455 0.333439 1.87364C0 3.21 0 6 0 6C0 6 0 8.79 0.333439 10.1264C0.516704 10.8627 1.05886 11.4436 1.74865 11.6427C2.99841 12 8 12 8 12C8 12 13.0041 12 14.2514 11.6427C14.9386 11.4464 15.4808 10.8655 15.6666 10.1264C16 8.79 16 6 16 6C16 6 16 3.21 15.6666 1.87364Z" fill="white"/>
<path d="M6.40153 8.57182L10.5581 6L6.40153 3.42818V8.57182Z" fill="black"/>
</g>
</svg>
