<svg width="24" height="24" viewBox="0 0 24 24" fill="none" xmlns="http://www.w3.org/2000/svg">
<g id="Filled / Communications / PhoneCall">
<g id="PhoneCall">
<path id="Vector" d="M20.8098 14.8525L16.4188 12.9706C16.1895 12.8719 15.9392 12.8322 15.6907 12.855C15.4421 12.8779 15.2032 12.9626 14.9958 13.1014L12.648 14.6664C11.2131 13.9685 10.0518 12.8123 9.34753 11.3805L9.34771 11.3803L10.9072 8.99734C11.043 8.79047 11.1253 8.55318 11.1469 8.30669C11.1685 8.0602 11.1287 7.8122 11.031 7.58487L9.1474 3.19006C9.01918 2.89174 8.79778 2.64298 8.51635 2.48103C8.23492 2.31907 7.9086 2.25263 7.58624 2.29166C6.31956 2.45452 5.15548 3.07296 4.31148 4.03144C3.46749 4.98992 3.00129 6.22289 3 7.5C3 14.944 9.05603 21 16.5 21C17.7771 20.9987 19.0101 20.5325 19.9686 19.6885C20.9271 18.8445 21.5455 17.6804 21.7083 16.4137C21.7473 16.0913 21.6808 15.765 21.5188 15.4836C21.3568 15.2022 21.1081 14.9808 20.8098 14.8525V14.8525Z" fill="#272D35"/>
<path id="Vector_2" d="M14.7516 4.47461C15.8958 4.78227 16.9391 5.38521 17.7769 6.22304C18.6147 7.06086 19.2177 8.10413 19.5253 9.24835C19.577 9.44014 19.7027 9.60359 19.8747 9.70283C20.0468 9.80208 20.2512 9.82901 20.4431 9.77773C20.635 9.72645 20.7987 9.60113 20.8983 9.42928C20.9979 9.25743 21.0253 9.05309 20.9744 8.86108C20.5983 7.46236 19.8613 6.18703 18.8371 5.16285C17.8129 4.13868 16.5376 3.40162 15.1389 3.02551C14.9469 2.97463 14.7425 3.002 14.5707 3.10161C14.3988 3.20122 14.2735 3.36494 14.2222 3.55683C14.1709 3.74873 14.1979 3.95313 14.2971 4.12519C14.3964 4.29725 14.5598 4.42291 14.7516 4.4746L14.7516 4.47461Z" fill="#272D35"/>
<path id="Vector_3" d="M13.9752 7.37304C14.6109 7.54397 15.1904 7.87892 15.6558 8.34435C16.1213 8.80977 16.4562 9.38933 16.6271 10.025C16.6788 10.2167 16.8045 10.3802 16.9766 10.4794C17.1486 10.5787 17.353 10.6056 17.5449 10.5543C17.7368 10.5031 17.9005 10.3777 18.0001 10.2059C18.0997 10.034 18.1271 9.8297 18.0762 9.63769C17.8369 8.74754 17.3678 7.93592 16.716 7.28413C16.0643 6.63235 15.2526 6.16329 14.3625 5.92395C14.1705 5.87307 13.9661 5.90044 13.7943 6.00005C13.6224 6.09966 13.4971 6.26337 13.4458 6.45527C13.3946 6.64717 13.4215 6.85157 13.5207 7.02363C13.62 7.19569 13.7834 7.32135 13.9752 7.37304L13.9752 7.37304Z" fill="#272D35"/>
</g>
</g>
</svg>
