<svg width="22" height="22" viewBox="0 0 22 22" fill="none" xmlns="http://www.w3.org/2000/svg">
<g id="Filled / Security / ShieldCheck">
<g id="ShieldCheck">
<path id="Vector" d="M17.875 2.75H4.125C3.76047 2.75047 3.41101 2.89549 3.15325 3.15325C2.89549 3.41101 2.75047 3.76047 2.75 4.125V9.16644C2.75 16.8545 9.26581 19.4037 10.573 19.8368C10.8499 19.9308 11.1501 19.9308 11.427 19.8368C12.7335 19.4037 19.25 16.8552 19.25 9.16644V4.125C19.2495 3.76047 19.1045 3.41101 18.8467 3.15325C18.589 2.89549 18.2395 2.75047 17.875 2.75V2.75ZM15.2559 8.7475L10.2138 13.56C10.0859 13.682 9.91589 13.75 9.73914 13.75C9.56238 13.75 9.3924 13.682 9.26447 13.56L6.74408 11.1537C6.67865 11.0914 6.62615 11.0168 6.58957 10.9342C6.55299 10.8516 6.53304 10.7626 6.53088 10.6723C6.52872 10.5819 6.54438 10.4921 6.57697 10.4078C6.60956 10.3235 6.65843 10.2465 6.7208 10.1812C6.78318 10.1158 6.85782 10.0633 6.94046 10.0268C7.02311 9.99033 7.11214 9.97047 7.20247 9.96839C7.2928 9.96631 7.38265 9.98205 7.46689 10.0147C7.55113 10.0474 7.62811 10.0963 7.69342 10.1588L9.73914 12.1118L14.3066 7.7525C14.3719 7.69007 14.4489 7.64113 14.5331 7.60846C14.6173 7.5758 14.7072 7.56006 14.7975 7.56214C14.8879 7.56422 14.9769 7.58408 15.0595 7.62059C15.1422 7.65709 15.2168 7.70953 15.2792 7.7749C15.3416 7.84027 15.3904 7.91729 15.423 8.00156C15.4556 8.08583 15.4713 8.1757 15.4691 8.26602C15.467 8.35635 15.447 8.44536 15.4104 8.52798C15.3738 8.61059 15.3213 8.68519 15.2559 8.7475H15.2559Z" fill="#3B5998"/>
</g>
</g>
</svg>
