<svg width="93" height="93" viewBox="0 0 93 93" fill="none" xmlns="http://www.w3.org/2000/svg">
<g id="Group 154">
<path id="Vector 63" d="M45.9423 69.7001C34.4869 69.6228 32.7321 67.9578 33.2867 67.135C33.6676 64.3077 36.246 65.1454 44.1692 64.7715C50.5077 64.4724 68.1254 66.9371 76.142 68.2068C70.8486 68.7368 57.3978 69.7774 45.9423 69.7001Z" fill="#77BE53"/>
<path id="Vector 65" d="M49.1511 50.2904C38.7908 64.5136 34.9659 64.7433 34.3485 63.0802C30.8622 59.2711 34.3046 57.0368 40.8917 46.6955C46.1613 38.4225 65.2703 19.3138 74.1662 10.7936C70.1446 18.0329 59.5114 36.0672 49.1511 50.2904Z" fill="#77BE53"/>
<path id="Vector 65_2" d="M25.7743 58.2765C23.6712 67.5605 25.2447 69.4313 26.2943 69.2062C29.6091 69.6656 29.1419 67.3533 31.0866 61.0481C32.6423 56.0039 33.1869 41.0891 33.2646 34.2622C31.6442 38.3987 27.8774 48.9926 25.7743 58.2765Z" fill="#77BE53"/>
</g>
</svg>
