<svg width="22" height="22" viewBox="0 0 22 22" fill="none" xmlns="http://www.w3.org/2000/svg">
<g id="Outlined / Commerce / Tote">
<g id="Tote">
<path id="Vector" d="M17.9471 18.5625H4.05279C3.8836 18.5625 3.72035 18.5001 3.59428 18.3873C3.46821 18.2744 3.38818 18.1191 3.36949 17.9509L2.14727 6.95092C2.13659 6.85482 2.14631 6.75755 2.17578 6.66546C2.20524 6.57338 2.25381 6.48854 2.31829 6.41649C2.38278 6.34445 2.46173 6.28681 2.55 6.24735C2.63827 6.20789 2.73388 6.1875 2.83057 6.1875H19.1693C19.266 6.1875 19.3616 6.20789 19.4499 6.24735C19.5382 6.28681 19.6171 6.34445 19.6816 6.41649C19.7461 6.48854 19.7946 6.57338 19.8241 6.66546C19.8536 6.75755 19.8633 6.85482 19.8526 6.95092L18.6304 17.9509C18.6117 18.1191 18.5317 18.2744 18.4056 18.3873C18.2795 18.5001 18.1163 18.5625 17.9471 18.5625Z" stroke="#333333" stroke-linecap="round" stroke-linejoin="round"/>
<path id="Vector_2" d="M7.5625 6.1875C7.5625 5.27582 7.92466 4.40148 8.56932 3.75682C9.21398 3.11216 10.0883 2.75 11 2.75C11.9117 2.75 12.786 3.11216 13.4307 3.75682C14.0753 4.40148 14.4375 5.27582 14.4375 6.1875" stroke="#333333" stroke-linecap="round" stroke-linejoin="round"/>
</g>
</g>
</svg>
