<svg width="38" height="34" viewBox="0 0 38 34" fill="none" xmlns="http://www.w3.org/2000/svg">
<path id="Vector" d="M37.5052 32.9245L19.9811 15.8026C19.9079 15.6592 19.9079 15.5732 19.9811 15.4728L34.9286 1.06114C34.9725 0.989439 35.0018 0.917739 34.9725 0.8317C34.9286 0.76 34.8554 0.71698 34.7822 0.71698H26.3788C26.3349 0.71698 26.2617 0.76 26.2617 0.76L7.44928 18.9287C7.40536 18.9717 7.33215 19.0004 7.25895 19.0004C7.11255 19.0004 7.02472 18.9287 7.02472 18.7423V1.10416C7.02472 0.846039 6.90759 0.73132 6.68799 0.73132H1.09552C0.861276 0.73132 0.758789 0.846039 0.758789 1.10416V32.9388C0.758789 33.1969 0.875916 33.3117 1.09552 33.3117H6.68799C6.92223 33.3117 7.02472 33.1969 7.02472 32.9388V28.1063C7.02472 27.9915 7.06864 27.9629 7.09792 27.9198L15.1499 20.1333C15.2231 20.0616 15.267 20.0616 15.3402 20.0616C15.3841 20.0616 15.4574 20.0616 15.5306 20.1333L29.0579 33.24C29.1311 33.283 29.175 33.3117 29.2043 33.3117H37.3442C37.4174 33.3117 37.4613 33.2686 37.5345 33.1683C37.5784 33.0822 37.5784 32.9962 37.5052 32.9245Z" fill="#E6D090"/>
</svg>
