<svg width="47" height="42" viewBox="0 0 47 42" fill="none" xmlns="http://www.w3.org/2000/svg">
<path id="Vector" d="M45.4991 0.86792H39.2192C38.8135 0.86792 38.5842 1.0982 38.5842 1.55877V21.8413C38.5842 24.1796 38.1255 26.1104 37.2083 27.687C36.291 29.299 35.1091 30.5921 33.6803 31.5486C32.2161 32.5583 30.558 33.3023 28.7411 33.7098C26.8712 34.1703 25.0366 34.4006 23.1492 34.4006C21.2793 34.4006 19.3919 34.1703 17.5573 33.7098C15.7227 33.3023 14.0822 32.5583 12.6181 31.5486C11.154 30.5744 10.0074 29.299 9.09009 27.687C8.17281 26.1281 7.71416 24.1973 7.71416 21.8413V1.55877C7.71416 1.38163 7.62597 1.18677 7.48485 1.04506C7.39665 0.95649 7.20261 0.86792 7.02621 0.86792H0.746364C0.340644 0.86792 0.111328 1.0982 0.111328 1.55877V21.8413C0.111328 24.8705 0.658166 27.6338 1.75185 30.0784C2.84553 32.5583 4.41549 34.684 6.42645 36.42C8.43741 38.1737 10.8717 39.5554 13.7118 40.512C16.5518 41.5217 19.7094 41.9822 23.1492 41.9822C26.589 41.9822 29.6936 41.5217 32.5337 40.512C35.3737 39.5377 37.7551 38.1737 39.7661 36.42C41.777 34.6663 43.3822 32.5583 44.4759 30.0784C45.5696 27.6338 46.1694 24.8882 46.1694 21.8413V1.55877C46.187 1.0982 45.9577 0.86792 45.4991 0.86792Z" fill="#E6D090"/>
</svg>
