<svg width="37" height="34" viewBox="0 0 37 34" fill="none" xmlns="http://www.w3.org/2000/svg">
<path id="Vector" d="M36.003 1.14717C36.003 0.846036 35.8566 0.702637 35.5492 0.702637H30.147C29.8396 0.702637 29.6932 0.846036 29.6932 1.14717L29.7664 23.1877C29.7664 23.2594 29.6932 23.3024 29.62 23.3024C29.5468 23.3024 29.5029 23.3024 29.4736 23.2594L5.94712 0.889056C5.9032 0.817356 5.82999 0.745657 5.63967 0.745657H1.04272C0.735282 0.745657 0.588867 0.889056 0.588867 1.19019V32.8384C0.588867 33.1396 0.735282 33.283 1.04272 33.283H6.35703C6.69375 33.283 6.85479 33.1396 6.85479 32.8384V10.6402C6.85479 10.5685 6.89871 10.5255 6.92799 10.4968C6.97191 10.4538 7.04511 10.4968 7.07439 10.5398L30.8351 33.1252C30.9083 33.24 31.0254 33.2686 31.1718 33.2686H35.5492C35.8859 33.2686 36.047 33.1252 36.047 32.7811L36.003 1.14717Z" fill="#E6D090"/>
</svg>
