<svg width="39" height="34" viewBox="0 0 39 34" fill="none" xmlns="http://www.w3.org/2000/svg">
<path id="Vector" d="M37.9093 20.0616C37.2212 18.9861 36.3575 18.0827 35.2448 17.3513C34.1468 16.6487 32.8878 16.0464 31.5263 15.6449C30.1208 15.229 28.6715 14.8992 27.2368 14.6841C25.7581 14.4547 24.3527 14.3113 22.9472 14.2682C21.5418 14.1965 20.2828 14.1535 19.1408 14.1535C15.4516 14.1535 12.5236 13.8954 10.4008 13.3361C8.27795 12.7339 7.20923 11.8448 7.20923 10.5829C7.20923 10.1383 7.35564 9.65078 7.707 9.13454C8.01444 8.61831 8.65859 8.17377 9.63947 7.71489C10.5911 7.27035 11.9526 6.94053 13.7387 6.63939C15.4808 6.33825 17.8086 6.19485 20.6488 6.19485C22.3909 6.19485 24.1038 6.30957 25.6996 6.56769C27.2953 6.86883 28.7447 7.16997 30.0769 7.57149C31.4384 7.94433 32.5803 8.36019 33.5759 8.80472C34.5567 9.22058 35.318 9.6221 35.889 9.92324C35.9329 9.92324 35.9329 9.96626 35.9622 9.96626C35.9622 10.0093 36.0061 10.0093 36.0061 10.0093C36.2404 10.0093 36.3136 9.89456 36.2404 9.70814L35.7865 3.08309C35.7865 2.93969 35.7426 2.89667 35.6694 2.89667C35.4059 2.78195 34.9081 2.56685 34.0736 2.22269C33.2392 1.92155 32.1704 1.59173 30.8821 1.29059C29.5499 0.960776 28.0712 0.659637 26.3584 0.401518C24.6016 0.11472 22.6984 0 20.6488 0C18.3649 0 16.0518 0.143399 13.6948 0.487558C11.3377 0.788697 9.21492 1.34795 7.341 2.12231C5.4378 2.91101 3.88596 3.9865 2.70012 5.36314C1.485 6.73977 0.870117 8.48925 0.870117 10.5685C0.870117 11.0131 0.943317 11.5437 1.01652 12.2033C1.08972 12.8342 1.35323 13.5369 1.73387 14.2539C2.11451 14.9996 2.68547 15.7022 3.44675 16.4479C4.25195 17.1506 5.30603 17.7815 6.63827 18.3838C7.99979 18.9431 9.68339 19.4306 11.6891 19.8035C13.7387 20.1333 16.2128 20.3197 19.0969 20.3197C21.454 20.3197 23.4743 20.3914 25.0993 20.5778C26.739 20.7642 28.0566 21.0224 29.1692 21.3235C30.194 21.6246 30.9992 21.9975 31.4824 22.399C31.9362 22.8148 32.1997 23.2164 32.1997 23.6609C32.1997 24.9228 31.2042 25.9266 29.1985 26.6723C27.2221 27.418 24.4844 27.8195 20.9855 27.8195C18.2917 27.8195 15.8908 27.6331 13.768 27.3032C11.6452 26.9734 9.77124 26.5576 8.2194 26.113C6.62364 25.6685 5.33532 25.224 4.3398 24.7364C3.315 24.2919 2.59763 23.962 2.17307 23.6896C2.12915 23.6896 2.12915 23.6896 2.09987 23.6896C2.09987 23.6466 2.05595 23.6466 2.05595 23.6466C1.90955 23.6466 1.82172 23.7613 1.82172 23.9477L2.5098 30.8309C2.5098 30.9026 2.55372 30.9456 2.62692 31.0173C2.89044 31.132 3.50532 31.3471 4.45692 31.6483C5.3646 31.9781 6.62363 32.3222 8.17547 32.652C9.72731 32.9819 11.6012 33.283 13.724 33.5411C15.8908 33.8423 18.2917 33.957 20.9855 33.957C23.7232 33.957 26.0363 33.7706 27.9834 33.3547C29.9598 32.9388 31.5995 32.4226 32.8878 31.7917C34.22 31.1607 35.2888 30.458 36.0793 29.6693C36.8845 28.8806 37.4408 28.1493 37.8654 27.4036C38.29 26.658 38.5535 25.9553 38.6706 25.3243C38.7877 24.6934 38.8609 24.2058 38.8609 23.876C38.8902 22.4133 38.5535 21.1514 37.9093 20.0616Z" fill="#E6D090"/>
</svg>
