<svg width="39" height="34" viewBox="0 0 39 34" fill="none" xmlns="http://www.w3.org/2000/svg">
<path id="Vector" d="M38.2107 0.702637H32.9989C32.6621 0.702637 32.4718 0.889056 32.4718 1.26189V17.6811C32.4718 19.574 32.0912 21.1371 31.3299 22.4133C30.5686 23.7182 29.5878 24.7651 28.4019 25.5394C27.1868 26.3568 25.8106 26.9591 24.3027 27.2889C22.7509 27.6617 21.2283 27.8481 19.6618 27.8481C18.11 27.8481 16.5435 27.6617 15.021 27.2889C13.4984 26.9591 12.1369 26.3568 10.9218 25.5394C9.70664 24.7507 8.75504 23.7182 7.99376 22.4133C7.23248 21.1514 6.85183 19.5883 6.85183 17.6811V1.26189C6.85183 1.1185 6.77863 0.960756 6.66151 0.846036C6.58831 0.774336 6.42727 0.702637 6.28087 0.702637H1.06903C0.732309 0.702637 0.541992 0.889056 0.541992 1.26189V17.6811C0.541992 20.1333 0.99583 22.3703 1.90351 24.3492C2.81119 26.3568 4.11415 28.0776 5.78311 29.4829C7.45207 30.9026 9.47239 32.0211 11.8294 32.7954C14.1865 33.6128 16.807 33.9856 19.6618 33.9856C22.5166 33.9856 25.0933 33.6128 27.4503 32.7954C29.8074 32.0067 31.7838 30.9026 33.4527 29.4829C35.1217 28.0632 36.4539 26.3568 37.3616 24.3492C38.2693 22.3703 38.767 20.1476 38.767 17.6811V1.26189C38.7817 0.889056 38.5914 0.702637 38.2107 0.702637Z" fill="#E6D090"/>
</svg>
