<svg width="31" height="32" viewBox="0 0 31 32" fill="none" xmlns="http://www.w3.org/2000/svg">
<path id="Icon" d="M1 1H2.90455C3.26328 1 3.44264 1 3.58698 1.06786C3.71418 1.12766 3.82198 1.22384 3.89751 1.34492C3.98323 1.48232 4.0086 1.66498 4.05933 2.03029L4.74947 7M4.74947 7L6.28326 18.5971C6.47789 20.0688 6.57521 20.8046 6.91722 21.3585C7.21858 21.8466 7.65063 22.2347 8.16137 22.4761C8.74099 22.75 9.46288 22.75 10.9067 22.75H23.3851C24.7595 22.75 25.4467 22.75 26.0082 22.4956C26.5034 22.2713 26.9282 21.9098 27.235 21.4513C27.583 20.9314 27.7116 20.237 27.9687 18.8481L29.8987 8.42453C29.9893 7.93571 30.0345 7.6913 29.9689 7.50025C29.9114 7.33265 29.7979 7.19153 29.6486 7.10203C29.4784 7 29.2366 7 28.7528 7H4.74947ZM12.665 29.5C12.665 30.3284 12.0122 31 11.2069 31C10.4016 31 9.74875 30.3284 9.74875 29.5C9.74875 28.6716 10.4016 28 11.2069 28C12.0122 28 12.665 28.6716 12.665 29.5ZM24.33 29.5C24.33 30.3284 23.6772 31 22.8719 31C22.0666 31 21.4138 30.3284 21.4138 29.5C21.4138 28.6716 22.0666 28 22.8719 28C23.6772 28 24.33 28.6716 24.33 29.5Z" stroke="white" stroke-width="2" stroke-linecap="round" stroke-linejoin="round"/>
</svg>
