<svg width="24" height="24" viewBox="0 0 24 24" fill="none" xmlns="http://www.w3.org/2000/svg">
<g id="Handbag">
<g id="Handbag_2">
<path id="Vector (Stroke)" fill-rule="evenodd" clip-rule="evenodd" d="M3.58757 6.56859C3.81679 6.36343 4.1136 6.25 4.42122 6.25H19.5787C19.8863 6.25 20.1831 6.36343 20.4123 6.56859C20.6415 6.77375 20.787 7.05622 20.821 7.36196L22.1543 19.362C22.1738 19.5367 22.1561 19.7135 22.1025 19.881C22.0489 20.0484 21.9606 20.2027 21.8434 20.3337C21.7262 20.4646 21.5826 20.5694 21.4221 20.6412C21.2616 20.7129 21.0878 20.75 20.912 20.75H3.08789C2.91209 20.75 2.73827 20.7129 2.57778 20.6412C2.41728 20.5694 2.27372 20.4646 2.15648 20.3337C2.03924 20.2027 1.95094 20.0484 1.89736 19.881C1.84378 19.7135 1.82612 19.5367 1.84554 19.362L3.17887 7.36196C3.21284 7.05622 3.35836 6.77375 3.58757 6.56859ZM4.42122 7.25C4.3597 7.25 4.30034 7.27269 4.25449 7.31372C4.20865 7.35475 4.17955 7.41124 4.17275 7.47239L2.83942 19.4724C2.83554 19.5073 2.83907 19.5427 2.84978 19.5762C2.8605 19.6097 2.87816 19.6405 2.90161 19.6667C2.92506 19.6929 2.95377 19.7139 2.98587 19.7282C3.01797 19.7426 3.05273 19.75 3.08789 19.75H20.912C20.9472 19.75 20.9819 19.7426 21.014 19.7282C21.0461 19.7139 21.0748 19.6929 21.0983 19.6667C21.1217 19.6405 21.1394 19.6097 21.1501 19.5762C21.1608 19.5427 21.1643 19.5073 21.1605 19.4724L19.8271 7.47239C19.8203 7.41124 19.7912 7.35475 19.7454 7.31372C19.6995 7.27269 19.6402 7.25 19.5787 7.25H4.42122Z" fill="white"/>
<path id="Vector (Stroke)_2" fill-rule="evenodd" clip-rule="evenodd" d="M12 3.5C11.138 3.5 10.3114 3.84241 9.7019 4.4519C9.09241 5.0614 8.75 5.88805 8.75 6.75V9.75C8.75 10.0261 8.52614 10.25 8.25 10.25C7.97386 10.25 7.75 10.0261 7.75 9.75V6.75C7.75 5.62283 8.19777 4.54183 8.9948 3.7448C9.79183 2.94777 10.8728 2.5 12 2.5C13.1272 2.5 14.2082 2.94777 15.0052 3.7448C15.8022 4.54183 16.25 5.62283 16.25 6.75V9.75C16.25 10.0261 16.0261 10.25 15.75 10.25C15.4739 10.25 15.25 10.0261 15.25 9.75V6.75C15.25 5.88805 14.9076 5.0614 14.2981 4.4519C13.6886 3.84241 12.862 3.5 12 3.5Z" fill="white"/>
</g>
</g>
</svg>
