<svg width="16" height="16" viewBox="0 0 16 16" fill="none" xmlns="http://www.w3.org/2000/svg">
<g id="X">
<g id="X_2">
<path id="Vector (Stroke)" fill-rule="evenodd" clip-rule="evenodd" d="M12.7357 3.26426C12.8659 3.39443 12.8659 3.60549 12.7357 3.73566L3.73571 12.7357C3.60553 12.8658 3.39448 12.8658 3.2643 12.7357C3.13413 12.6055 3.13413 12.3944 3.2643 12.2643L12.2643 3.26426C12.3945 3.13408 12.6055 3.13408 12.7357 3.26426Z" fill="#3C3C46"/>
<path id="Vector (Stroke)_2" fill-rule="evenodd" clip-rule="evenodd" d="M3.2643 3.26426C3.39448 3.13408 3.60553 3.13408 3.73571 3.26426L12.7357 12.2643C12.8659 12.3944 12.8659 12.6055 12.7357 12.7357C12.6055 12.8658 12.3945 12.8658 12.2643 12.7357L3.2643 3.73566C3.13413 3.60549 3.13413 3.39443 3.2643 3.26426Z" fill="#3C3C46"/>
</g>
</g>
</svg>
