<svg width="26" height="22" viewBox="0 0 26 22" fill="none" xmlns="http://www.w3.org/2000/svg">
<g id="Frame" clip-path="url(#clip0_1_1368)">
<g id="Group">
<g id="Group_2">
<path id="Vector" d="M21.6673 6.13956L19.5007 3.58142L17.334 6.13956" stroke="#E7C35C" stroke-miterlimit="10" stroke-linecap="round" stroke-linejoin="round"/>
<path id="Vector_2" d="M19.501 10.7442V3.58142" stroke="#E7C35C" stroke-miterlimit="10" stroke-linecap="round" stroke-linejoin="round"/>
</g>
<g id="Group_3">
<path id="Vector_3" d="M4.33398 6.13956L6.50065 3.58142L8.66732 6.13956" stroke="#E7C35C" stroke-miterlimit="10" stroke-linecap="round" stroke-linejoin="round"/>
<path id="Vector_4" d="M6.50098 10.7442V3.58142" stroke="#E7C35C" stroke-miterlimit="10" stroke-linecap="round" stroke-linejoin="round"/>
</g>
<g id="Group_4">
<path id="Vector_5" d="M15.1673 3.06974L13.0007 0.511597L10.834 3.06974" stroke="#E7C35C" stroke-miterlimit="10" stroke-linecap="round" stroke-linejoin="round"/>
<path id="Vector_6" d="M13.001 7.67439V0.511597" stroke="#E7C35C" stroke-miterlimit="10" stroke-linecap="round" stroke-linejoin="round"/>
</g>
<path id="Vector_7" d="M0.541992 17.3953H8.12532" stroke="#E7C35C" stroke-miterlimit="10" stroke-linecap="round" stroke-linejoin="round"/>
<path id="Vector_8" d="M25.4583 17.3953H17.875" stroke="#E7C35C" stroke-miterlimit="10" stroke-linecap="round" stroke-linejoin="round"/>
<path id="Vector_9" d="M2.16667 19.4302C2.18538 19.4302 2.19771 19.4364 2.20439 19.4418C2.19771 19.4472 2.18538 19.4534 2.16667 19.4534C2.14795 19.4534 2.13562 19.4472 2.12894 19.4418C2.13562 19.4364 2.14795 19.4302 2.16667 19.4302Z" fill="#E7C35C" stroke="#E7C35C"/>
<path id="Vector_10" d="M4.33366 19.4302C4.35237 19.4302 4.3647 19.4364 4.37138 19.4418C4.3647 19.4472 4.35237 19.4534 4.33366 19.4534C4.31494 19.4534 4.30261 19.4472 4.29593 19.4418C4.30261 19.4364 4.31494 19.4302 4.33366 19.4302Z" fill="#E7C35C" stroke="#E7C35C"/>
<path id="Vector_11" d="M8.66667 19.4302C8.68538 19.4302 8.69771 19.4364 8.70439 19.4418C8.69771 19.4472 8.68538 19.4534 8.66667 19.4534C8.64795 19.4534 8.63562 19.4472 8.62894 19.4418C8.63562 19.4364 8.64795 19.4302 8.66667 19.4302Z" fill="#E7C35C" stroke="#E7C35C"/>
<path id="Vector_12" d="M17.3337 19.4302C17.3524 19.4302 17.3647 19.4364 17.3714 19.4418C17.3647 19.4472 17.3524 19.4534 17.3337 19.4534C17.3149 19.4534 17.3026 19.4472 17.2959 19.4418C17.3026 19.4364 17.3149 19.4302 17.3337 19.4302Z" fill="#E7C35C" stroke="#E7C35C"/>
<path id="Vector_13" d="M21.6667 19.4302C21.6854 19.4302 21.6977 19.4364 21.7044 19.4418C21.6977 19.4472 21.6854 19.4534 21.6667 19.4534C21.648 19.4534 21.6356 19.4472 21.6289 19.4418C21.6356 19.4364 21.648 19.4302 21.6667 19.4302Z" fill="#E7C35C" stroke="#E7C35C"/>
<path id="Vector_14" d="M3.25065 21.4767C3.26937 21.4767 3.2817 21.4829 3.28838 21.4883C3.2817 21.4937 3.26937 21.4999 3.25065 21.4999C3.23194 21.4999 3.21961 21.4937 3.21293 21.4883C3.21961 21.4829 3.23194 21.4767 3.25065 21.4767Z" fill="#E7C35C" stroke="#E7C35C"/>
<path id="Vector_15" d="M5.41667 21.4767C5.43538 21.4767 5.44771 21.4829 5.45439 21.4883C5.44771 21.4937 5.43538 21.4999 5.41667 21.4999C5.39795 21.4999 5.38562 21.4937 5.37894 21.4883C5.38562 21.4829 5.39795 21.4767 5.41667 21.4767Z" fill="#E7C35C" stroke="#E7C35C"/>
<path id="Vector_16" d="M7.58366 21.4767C7.60237 21.4767 7.6147 21.4829 7.62138 21.4883C7.6147 21.4937 7.60237 21.4999 7.58366 21.4999C7.56494 21.4999 7.55261 21.4937 7.54593 21.4883C7.55261 21.4829 7.56494 21.4767 7.58366 21.4767Z" fill="#E7C35C" stroke="#E7C35C"/>
<path id="Vector_17" d="M9.75065 21.4767C9.76937 21.4767 9.7817 21.4829 9.78838 21.4883C9.7817 21.4937 9.76937 21.4999 9.75065 21.4999C9.73194 21.4999 9.71961 21.4937 9.71293 21.4883C9.71961 21.4829 9.73194 21.4767 9.75065 21.4767Z" fill="#E7C35C" stroke="#E7C35C"/>
<path id="Vector_18" d="M13.0007 17.8953C13.0194 17.8953 13.0317 17.9015 13.0384 17.9069C13.0317 17.9123 13.0194 17.9185 13.0007 17.9185C12.9819 17.9185 12.9696 17.9123 12.9629 17.9069C12.9696 17.9015 12.9819 17.8953 13.0007 17.8953Z" fill="#E7C35C" stroke="#E7C35C"/>
<path id="Vector_19" d="M13.5417 16.3605C13.5604 16.3605 13.5727 16.3667 13.5794 16.3721C13.5727 16.3775 13.5604 16.3837 13.5417 16.3837C13.523 16.3837 13.5106 16.3775 13.5039 16.3721C13.5106 16.3667 13.523 16.3605 13.5417 16.3605Z" fill="#E7C35C" stroke="#E7C35C"/>
<path id="Vector_20" d="M11.9167 15.3372C11.9354 15.3372 11.9477 15.3434 11.9544 15.3488C11.9477 15.3542 11.9354 15.3604 11.9167 15.3604C11.898 15.3604 11.8856 15.3542 11.8789 15.3488C11.8856 15.3434 11.898 15.3372 11.9167 15.3372Z" fill="#E7C35C" stroke="#E7C35C"/>
<path id="Vector_21" d="M14.0837 14.314C14.1024 14.314 14.1147 14.3202 14.1214 14.3256C14.1147 14.331 14.1024 14.3372 14.0837 14.3372C14.0649 14.3372 14.0526 14.331 14.0459 14.3256C14.0526 14.3202 14.0649 14.314 14.0837 14.314Z" fill="#E7C35C" stroke="#E7C35C"/>
<path id="Vector_22" d="M12.4587 13.2906C12.4774 13.2906 12.4897 13.2969 12.4964 13.3023C12.4897 13.3077 12.4774 13.3139 12.4587 13.3139C12.4399 13.3139 12.4276 13.3077 12.4209 13.3023C12.4276 13.2969 12.4399 13.2906 12.4587 13.2906Z" fill="#E7C35C" stroke="#E7C35C"/>
<path id="Vector_23" d="M11.3757 10.7325C11.3944 10.7325 11.4067 10.7388 11.4134 10.7442C11.4067 10.7496 11.3944 10.7558 11.3757 10.7558C11.3569 10.7558 11.3446 10.7496 11.3379 10.7442C11.3446 10.7388 11.3569 10.7325 11.3757 10.7325Z" fill="#E7C35C" stroke="#E7C35C"/>
<path id="Vector_24" d="M15.1667 12.7791C15.1854 12.7791 15.1977 12.7853 15.2044 12.7907C15.1977 12.7961 15.1854 12.8023 15.1667 12.8023C15.148 12.8023 15.1356 12.7961 15.1289 12.7907C15.1356 12.7853 15.148 12.7791 15.1667 12.7791Z" fill="#E7C35C" stroke="#E7C35C"/>
<path id="Vector_25" d="M13.5417 11.2441C13.5604 11.2441 13.5727 11.2503 13.5794 11.2558C13.5727 11.2612 13.5604 11.2674 13.5417 11.2674C13.523 11.2674 13.5106 11.2612 13.5039 11.2558C13.5106 11.2503 13.523 11.2441 13.5417 11.2441Z" fill="#E7C35C" stroke="#E7C35C"/>
<path id="Vector_26" d="M10.2917 12.7791C10.3104 12.7791 10.3227 12.7853 10.3294 12.7907C10.3227 12.7961 10.3104 12.8023 10.2917 12.8023C10.273 12.8023 10.2606 12.7961 10.2539 12.7907C10.2606 12.7853 10.273 12.7791 10.2917 12.7791Z" fill="#E7C35C" stroke="#E7C35C"/>
<path id="Vector_27" d="M16.2507 21.4767C16.2694 21.4767 16.2817 21.4829 16.2884 21.4883C16.2817 21.4937 16.2694 21.4999 16.2507 21.4999C16.2319 21.4999 16.2196 21.4937 16.2129 21.4883C16.2196 21.4829 16.2319 21.4767 16.2507 21.4767Z" fill="#E7C35C" stroke="#E7C35C"/>
<path id="Vector_28" d="M18.4167 21.4767C18.4354 21.4767 18.4477 21.4829 18.4544 21.4883C18.4477 21.4937 18.4354 21.4999 18.4167 21.4999C18.398 21.4999 18.3856 21.4937 18.3789 21.4883C18.3856 21.4829 18.398 21.4767 18.4167 21.4767Z" fill="#E7C35C" stroke="#E7C35C"/>
<path id="Vector_29" d="M20.5837 21.4767C20.6024 21.4767 20.6147 21.4829 20.6214 21.4883C20.6147 21.4937 20.6024 21.4999 20.5837 21.4999C20.5649 21.4999 20.5526 21.4937 20.5459 21.4883C20.5526 21.4829 20.5649 21.4767 20.5837 21.4767Z" fill="#E7C35C" stroke="#E7C35C"/>
<path id="Vector_30" d="M22.7507 21.4767C22.7694 21.4767 22.7817 21.4829 22.7884 21.4883C22.7817 21.4937 22.7694 21.4999 22.7507 21.4999C22.7319 21.4999 22.7196 21.4937 22.7129 21.4883C22.7196 21.4829 22.7319 21.4767 22.7507 21.4767Z" fill="#E7C35C" stroke="#E7C35C"/>
<path id="Vector_31" d="M6.50065 19.4302C6.51937 19.4302 6.5317 19.4364 6.53838 19.4418C6.5317 19.4472 6.51937 19.4534 6.50065 19.4534C6.48194 19.4534 6.46961 19.4472 6.46293 19.4418C6.46961 19.4364 6.48194 19.4302 6.50065 19.4302Z" fill="#E7C35C" stroke="#E7C35C"/>
<path id="Vector_32" d="M19.5007 19.4302C19.5194 19.4302 19.5317 19.4364 19.5384 19.4418C19.5317 19.4472 19.5194 19.4534 19.5007 19.4534C19.4819 19.4534 19.4696 19.4472 19.4629 19.4418C19.4696 19.4364 19.4819 19.4302 19.5007 19.4302Z" fill="#E7C35C" stroke="#E7C35C"/>
<path id="Vector_33" d="M23.8337 19.4302C23.8524 19.4302 23.8647 19.4364 23.8714 19.4418C23.8647 19.4472 23.8524 19.4534 23.8337 19.4534C23.8149 19.4534 23.8026 19.4472 23.7959 19.4418C23.8026 19.4364 23.8149 19.4302 23.8337 19.4302Z" fill="#E7C35C" stroke="#E7C35C"/>
<path id="Vector_34" d="M0.541992 14.8372H8.12533C9.64199 14.8372 10.8337 15.9627 10.8337 17.3953V18.4186C10.8337 19.5441 11.8087 20.4651 13.0003 20.4651C14.192 20.4651 15.167 19.5441 15.167 18.4186V17.3953C15.167 15.9627 16.3587 14.8372 17.8753 14.8372H25.4587" stroke="#E7C35C" stroke-miterlimit="10" stroke-linecap="round" stroke-linejoin="round"/>
</g>
</g>
<defs>
<clipPath id="clip0_1_1368">
<rect width="26" height="22" fill="white"/>
</clipPath>
</defs>
</svg>
