<svg width="21" height="24" viewBox="0 0 21 24" fill="none" xmlns="http://www.w3.org/2000/svg">
<g id="Frame">
<g id="Group">
<path id="Vector" d="M7.04361 13.3914C7.21752 15.3914 9.30447 17.5218 11.348 17.6957C9.34795 17.8696 7.21752 20.0001 7.04361 22.0001C6.86969 20.0001 4.73926 17.8696 2.73926 17.6957C4.73926 17.5218 6.86969 15.4348 7.04361 13.3914Z" stroke="#333333" stroke-miterlimit="10" stroke-linecap="round" stroke-linejoin="round"/>
<path id="Vector_2" d="M15.6092 7.60864C15.7396 9.34777 17.5657 11.1304 19.2614 11.2608C17.5222 11.3913 15.7396 13.2173 15.6092 14.913C15.4788 13.1739 13.6527 11.3913 11.957 11.2608C13.6527 11.1304 15.4353 9.30429 15.6092 7.60864Z" stroke="#333333" stroke-miterlimit="10" stroke-linecap="round" stroke-linejoin="round"/>
<path id="Vector_3" d="M9.91317 2C10.0436 3.47826 11.6088 5.04348 13.0871 5.17391C11.6088 5.30435 10.0436 6.86957 9.91317 8.34783C9.78274 6.86957 8.21752 5.30435 6.73926 5.17391C8.261 5.04348 9.78274 3.47826 9.91317 2Z" stroke="#333333" stroke-miterlimit="10" stroke-linecap="round" stroke-linejoin="round"/>
<g id="Group_2">
<path id="Vector_4" d="M4.04395 9.39124H6.65264" stroke="#333333" stroke-miterlimit="10" stroke-linecap="round" stroke-linejoin="round"/>
<path id="Vector_5" d="M5.34863 10.6956V8.08691" stroke="#333333" stroke-miterlimit="10" stroke-linecap="round" stroke-linejoin="round"/>
</g>
<g id="Group_3">
<path id="Vector_6" d="M14.9131 18.9565H17.5218" stroke="#333333" stroke-miterlimit="10" stroke-linecap="round" stroke-linejoin="round"/>
<path id="Vector_7" d="M16.2178 20.2609V17.6522" stroke="#333333" stroke-miterlimit="10" stroke-linecap="round" stroke-linejoin="round"/>
</g>
</g>
</g>
</svg>
