<svg width="44" height="42" viewBox="0 0 44 42" fill="none" xmlns="http://www.w3.org/2000/svg">
<path id="Vector" d="M43.0608 1.41706C43.0608 1.04506 42.8844 0.86792 42.514 0.86792H36.0048C35.6344 0.86792 35.458 1.04506 35.458 1.41706L35.5462 28.6435C35.5462 28.7321 35.458 28.7853 35.3698 28.7853C35.2816 28.7853 35.2287 28.7853 35.1934 28.7321L6.84591 1.0982C6.79299 1.00963 6.70477 0.921062 6.47545 0.921062H0.936506C0.566066 0.921062 0.389648 1.0982 0.389648 1.4702V40.5651C0.389648 40.9371 0.566066 41.1142 0.936506 41.1142H7.33981C7.74553 41.1142 7.93958 40.9371 7.93958 40.5651V13.1438C7.93958 13.0552 7.9925 13.002 8.02778 12.9666C8.0807 12.9135 8.1689 12.9666 8.20418 13.0198L36.8339 40.9194C36.9221 41.0611 37.0632 41.0965 37.2396 41.0965H42.514C42.9197 41.0965 43.1137 40.9194 43.1137 40.4942L43.0608 1.41706Z" fill="#E6D090"/>
</svg>
