<svg width="24" height="24" viewBox="0 0 24 24" fill="none" xmlns="http://www.w3.org/2000/svg">
<g id="Handbag">
<g id="Handbag_2">
<path id="Vector (Stroke)" fill-rule="evenodd" clip-rule="evenodd" d="M3.58763 6.56859C3.81685 6.36343 4.11367 6.25 4.42129 6.25H19.5787C19.8863 6.25 20.1832 6.36343 20.4124 6.56859C20.6416 6.77375 20.7871 7.05622 20.8211 7.36196L22.1544 19.362C22.1738 19.5367 22.1562 19.7135 22.1026 19.881C22.049 20.0484 21.9607 20.2027 21.8435 20.3337C21.7262 20.4646 21.5827 20.5694 21.4222 20.6412C21.2617 20.7129 21.0879 20.75 20.9121 20.75H3.08795C2.91215 20.75 2.73833 20.7129 2.57784 20.6412C2.41734 20.5694 2.27379 20.4646 2.15654 20.3337C2.0393 20.2027 1.951 20.0484 1.89742 19.881C1.84384 19.7135 1.82618 19.5367 1.8456 19.362L3.17893 7.36196C3.2129 7.05622 3.35842 6.77375 3.58763 6.56859ZM4.42129 7.25C4.35976 7.25 4.3004 7.27269 4.25455 7.31372C4.20871 7.35475 4.17961 7.41124 4.17281 7.47239L2.83948 19.4724C2.8356 19.5073 2.83913 19.5427 2.84985 19.5762C2.86056 19.6097 2.87822 19.6405 2.90167 19.6667C2.92512 19.6929 2.95383 19.7139 2.98593 19.7282C3.01803 19.7426 3.05279 19.75 3.08795 19.75H20.9121C20.9472 19.75 20.982 19.7426 21.0141 19.7282C21.0462 19.7139 21.0749 19.6929 21.0983 19.6667C21.1218 19.6405 21.1394 19.6097 21.1502 19.5762C21.1609 19.5427 21.1644 19.5073 21.1605 19.4724L19.8272 7.47239C19.8204 7.41124 19.7913 7.35475 19.7455 7.31372C19.6996 7.27269 19.6402 7.25 19.5787 7.25H4.42129Z" fill="#9393A2"/>
<path id="Vector (Stroke)_2" fill-rule="evenodd" clip-rule="evenodd" d="M12 3.5C11.138 3.5 10.3114 3.84241 9.7019 4.4519C9.09241 5.0614 8.75 5.88805 8.75 6.75V9.75C8.75 10.0261 8.52614 10.25 8.25 10.25C7.97386 10.25 7.75 10.0261 7.75 9.75V6.75C7.75 5.62283 8.19777 4.54183 8.9948 3.7448C9.79183 2.94777 10.8728 2.5 12 2.5C13.1272 2.5 14.2082 2.94777 15.0052 3.7448C15.8022 4.54183 16.25 5.62283 16.25 6.75V9.75C16.25 10.0261 16.0261 10.25 15.75 10.25C15.4739 10.25 15.25 10.0261 15.25 9.75V6.75C15.25 5.88805 14.9076 5.0614 14.2981 4.4519C13.6886 3.84241 12.862 3.5 12 3.5Z" fill="#9393A2"/>
</g>
</g>
</svg>
