<svg width="24" height="24" viewBox="0 0 24 24" fill="none" xmlns="http://www.w3.org/2000/svg">
<g id="Receipt">
<g id="Receipt_2">
<path id="Vector (Stroke)" fill-rule="evenodd" clip-rule="evenodd" d="M6.625 9.75C6.625 9.47386 6.84886 9.25 7.125 9.25H16.875C17.1511 9.25 17.375 9.47386 17.375 9.75C17.375 10.0261 17.1511 10.25 16.875 10.25H7.125C6.84886 10.25 6.625 10.0261 6.625 9.75Z" fill="#9393A2"/>
<path id="Vector (Stroke)_2" fill-rule="evenodd" clip-rule="evenodd" d="M6.625 12.75C6.625 12.4739 6.84886 12.25 7.125 12.25H16.875C17.1511 12.25 17.375 12.4739 17.375 12.75C17.375 13.0261 17.1511 13.25 16.875 13.25H7.125C6.84886 13.25 6.625 13.0261 6.625 12.75Z" fill="#9393A2"/>
<path id="Vector (Stroke)_3" fill-rule="evenodd" clip-rule="evenodd" d="M3.75 5C3.6837 5 3.62011 5.02634 3.57322 5.07322C3.52634 5.12011 3.5 5.1837 3.5 5.25V18.691L5.77639 17.5528C5.91716 17.4824 6.08284 17.4824 6.22361 17.5528L9 18.941L11.7764 17.5528C11.9172 17.4824 12.0828 17.4824 12.2236 17.5528L15 18.941L17.7764 17.5528C17.9172 17.4824 18.0828 17.4824 18.2236 17.5528L20.5 18.691V5.25C20.5 5.1837 20.4737 5.12011 20.4268 5.07322C20.3799 5.02634 20.3163 5 20.25 5H3.75ZM2.86612 4.36612C3.10054 4.1317 3.41848 4 3.75 4H20.25C20.5815 4 20.8995 4.1317 21.1339 4.36612C21.3683 4.60054 21.5 4.91848 21.5 5.25V19.5C21.5 19.6733 21.4103 19.8342 21.2629 19.9253C21.1155 20.0164 20.9314 20.0247 20.7764 19.9472L18 18.559L15.2236 19.9472C15.0828 20.0176 14.9172 20.0176 14.7764 19.9472L12 18.559L9.22361 19.9472C9.08284 20.0176 8.91716 20.0176 8.77639 19.9472L6 18.559L3.22361 19.9472C3.06861 20.0247 2.88454 20.0164 2.73713 19.9253C2.58973 19.8342 2.5 19.6733 2.5 19.5V5.25C2.5 4.91848 2.6317 4.60054 2.86612 4.36612Z" fill="#9393A2"/>
</g>
</g>
</svg>
