<svg width="16" height="15" viewBox="0 0 16 15" fill="none" xmlns="http://www.w3.org/2000/svg">
<path id="Vector" fill-rule="evenodd" clip-rule="evenodd" d="M14.1096 9.93366C13.7833 9.66761 13.4011 9.48035 12.9923 9.38615C12.5835 9.29195 12.1588 9.29328 11.7506 9.39006C11.1372 9.64755 10.7409 10.6203 10.3446 11.1067C10.261 11.2233 10.1382 11.3051 9.99923 11.3367C9.86024 11.3683 9.71463 11.3476 9.58969 11.2784C7.34418 10.3895 5.46198 8.75943 4.2488 6.65296C4.14533 6.52151 4.09635 6.35461 4.11219 6.18739C4.12803 6.02018 4.20745 5.8657 4.33373 5.75649C4.77576 5.31422 5.1003 4.76645 5.27735 4.16382C5.31666 3.49911 5.16598 2.83699 4.84328 2.25643C4.59381 1.44251 4.11903 0.717767 3.47503 0.167843C3.14288 0.0168598 2.77459 -0.0337642 2.41461 0.0220795C2.05462 0.0779231 1.71831 0.237849 1.44625 0.482562C0.97394 0.894407 0.599051 1.40808 0.34919 1.98576C0.0993296 2.56344 -0.0191375 3.19041 0.00251308 3.82049C0.00397084 4.17432 0.0483376 4.52663 0.13462 4.86955C0.353735 5.69345 0.690701 6.4806 1.13486 7.2061C1.45531 7.76184 1.80495 8.29986 2.18227 8.81784C3.40855 10.5192 4.95001 11.9638 6.72108 13.0713C7.60983 13.6341 8.5597 14.0917 9.55194 14.4351C10.5827 14.9073 11.7207 15.0886 12.8452 14.9596C13.4859 14.8616 14.0929 14.606 14.6128 14.2151C15.1328 13.8243 15.5498 13.3104 15.827 12.7184C15.9899 12.3609 16.0394 11.9611 15.9686 11.574C15.7987 10.7824 14.7513 10.3151 14.1096 9.93366Z" fill="white"/>
</svg>
