<svg width="39" height="39" viewBox="0 0 39 39" fill="none" xmlns="http://www.w3.org/2000/svg">
<g id="Social Media / Tik Tok">
<g id="Capa 2">
<g id="ELEMENTS">
<path id="Vector" d="M25.6187 13.8961C25.4893 13.8292 25.3634 13.7559 25.2414 13.6764C24.8865 13.4418 24.5611 13.1654 24.2722 12.853C23.5494 12.026 23.2795 11.1871 23.1801 10.5997H23.1841C23.101 10.1121 23.1353 9.79663 23.1405 9.79663H19.8485V22.5262C19.8485 22.6971 19.8485 22.866 19.8413 23.0329C19.8413 23.0537 19.8393 23.0728 19.8381 23.0952C19.8381 23.1044 19.8382 23.114 19.8362 23.1236C19.8362 23.1259 19.8362 23.1283 19.8362 23.1307C19.8015 23.5875 19.655 24.0287 19.4098 24.4156C19.1646 24.8024 18.828 25.1231 18.4297 25.3494C18.0147 25.5855 17.5452 25.7094 17.0677 25.7088C15.5339 25.7088 14.2908 24.4581 14.2908 22.9135C14.2908 21.3689 15.5339 20.1183 17.0677 20.1183C17.358 20.118 17.6466 20.1637 17.9226 20.2536L17.9266 16.9017C17.0886 16.7935 16.2372 16.8601 15.4262 17.0973C14.6152 17.3346 13.8622 17.7373 13.2146 18.2802C12.6472 18.7732 12.1702 19.3614 11.805 20.0184C11.6661 20.258 11.1417 21.2208 11.0783 22.7833C11.0383 23.6702 11.3047 24.5891 11.4317 24.9688V24.9768C11.5115 25.2004 11.821 25.9635 12.3253 26.6068C12.732 27.1229 13.2125 27.5762 13.7513 27.9521V27.9441L13.7593 27.9521C15.353 29.0351 17.12 28.964 17.12 28.964C17.4259 28.9516 18.4505 28.964 19.6141 28.4126C20.9047 27.8012 21.6395 26.8903 21.6395 26.8903C22.1089 26.3461 22.4821 25.7259 22.7432 25.0563C23.0411 24.2732 23.1405 23.334 23.1405 22.9586V16.2053C23.1805 16.2293 23.7124 16.5811 23.7124 16.5811C23.7124 16.5811 24.4787 17.0722 25.6742 17.3921C26.532 17.6197 27.6876 17.6676 27.6876 17.6676V14.3996C27.2827 14.4435 26.4605 14.3157 25.6187 13.8961Z" fill="white"/>
</g>
</g>
</g>
</svg>
