<svg width="48" height="48" viewBox="0 0 48 48" fill="none" xmlns="http://www.w3.org/2000/svg">
<g id="box" clip-path="url(#clip0_1_1091)">
<g id="Group">
<g id="Group_2">
<path id="Vector" d="M46.1003 10.5916L24.3064 0.0703789C24.1132 -0.0228086 23.8882 -0.0228086 23.695 0.0703789L1.90107 10.5916C1.65807 10.7088 1.50366 10.9549 1.50366 11.2248V36.7762C1.50366 37.046 1.65807 37.2921 1.90107 37.4094L23.6949 47.9306C23.7915 47.9772 23.8961 48.0005 24.0007 48.0005C24.1052 48.0005 24.2097 47.9772 24.3064 47.9306L46.1003 37.4094C46.3433 37.2921 46.4977 37.046 46.4977 36.7762V11.2248C46.4977 10.9548 46.3432 10.7089 46.1003 10.5916ZM24.0007 1.48441L44.1773 11.2248L38.3285 14.0483C38.2914 14.0201 38.2523 13.994 38.2094 13.9733L18.1699 4.29925L24.0007 1.48441ZM16.5819 5.09425L36.7292 14.8204L32.6028 16.8125L12.4639 7.09029L16.5819 5.09425ZM37.2006 16.1543V23.518L33.3462 25.3788V18.0151L37.2006 16.1543ZM45.0914 36.335L24.7038 46.1771V22.1872L29.5669 19.8395C29.9166 19.6707 30.0632 19.2504 29.8943 18.9006C29.7255 18.551 29.3052 18.4042 28.9554 18.5732L24.0007 20.9652L22.051 20.0239C21.7013 19.8549 21.281 20.0017 21.1121 20.3514C20.9433 20.7011 21.0899 21.1215 21.4396 21.2903L23.2975 22.1872V46.1771L2.90991 36.3348V12.345L18.4349 19.8398C18.5334 19.8874 18.6376 19.9099 18.7401 19.9099C19.0014 19.9099 19.2525 19.7635 19.3737 19.5123C19.5426 19.1627 19.3959 18.7423 19.0463 18.5734L3.82407 11.2248L10.8089 7.85275L31.9302 18.0493C31.9333 18.0536 31.9368 18.0574 31.94 18.0617V26.4991C31.94 26.741 32.0644 26.9659 32.2693 27.0947C32.3831 27.1661 32.513 27.2022 32.6432 27.2022C32.7474 27.2022 32.852 27.179 32.9488 27.1323L38.2094 24.5927C38.4524 24.4754 38.6068 24.2294 38.6068 23.9595V15.4756L45.0914 12.3451V36.335Z" fill="#6C6C7D"/>
</g>
</g>
<g id="Group_3">
<g id="Group_4">
<path id="Vector_2" d="M8.7112 33.6071L5.51291 32.0631C5.16304 31.8941 4.74285 32.0409 4.57401 32.3906C4.40516 32.7403 4.55179 33.1606 4.90148 33.3295L8.09976 34.8734C8.19829 34.9211 8.30245 34.9436 8.40492 34.9436C8.66629 34.9436 8.91735 34.7971 9.03857 34.546C9.20751 34.1962 9.06089 33.776 8.7112 33.6071Z" fill="#6C6C7D"/>
</g>
</g>
<g id="Group_5">
<g id="Group_6">
<path id="Vector_3" d="M11.6561 31.6913L5.51871 28.7284C5.16893 28.5596 4.74865 28.7062 4.57981 29.056C4.41106 29.4057 4.55768 29.826 4.90737 29.9949L11.0447 32.9578C11.1432 33.0053 11.2474 33.0279 11.3499 33.0279C11.6112 33.0279 11.8623 32.8815 11.9835 32.6303C12.1524 32.2804 12.0057 31.8601 11.6561 31.6913Z" fill="#6C6C7D"/>
</g>
</g>
</g>
<defs>
<clipPath id="clip0_1_1091">
<rect width="48" height="48" fill="white"/>
</clipPath>
</defs>
</svg>
