<svg width="48" height="48" viewBox="0 0 48 48" fill="none" xmlns="http://www.w3.org/2000/svg">
<g id="credit-card" clip-path="url(#clip0_1_1120)">
<g id="Group">
<g id="Group_2">
<path id="Vector" d="M34.5212 13.9032H2.95763C1.32675 13.9032 0 15.2299 0 16.8608V37.9032C0 39.5341 1.32675 40.8608 2.95763 40.8608H34.5211C36.152 40.8608 37.4788 39.5341 37.4788 37.9032V16.8608C37.4788 15.2299 36.1521 13.9032 34.5212 13.9032ZM36.0726 37.9032C36.0726 38.7586 35.3766 39.4546 34.5211 39.4546H2.95763C2.10216 39.4546 1.40625 38.7586 1.40625 37.9032V16.8608C1.40625 16.0054 2.10216 15.3094 2.95763 15.3094H34.5211C35.3766 15.3094 36.0726 16.0054 36.0726 16.8608V37.9032Z" fill="#6C6C7D"/>
</g>
</g>
<g id="Group_3">
<g id="Group_4">
<path id="Vector_2" d="M9.71994 22.1699H6.71394C5.49744 22.1699 4.50781 23.1596 4.50781 24.376V25.879C4.50781 27.0955 5.49744 28.0852 6.71394 28.0852H9.71994C10.9364 28.0852 11.9261 27.0954 11.9261 25.879V24.376C11.9261 23.1595 10.9363 22.1699 9.71994 22.1699ZM7.51381 26.679H6.71394C6.27284 26.679 5.91406 26.3202 5.91406 25.8791V24.376C5.91406 23.9349 6.27294 23.5762 6.71394 23.5762H7.51381V26.679ZM10.5199 25.879C10.5199 26.3201 10.161 26.6789 9.72003 26.6789H8.92016V23.5761H9.72003C10.161 23.5762 10.5199 23.9349 10.5199 24.376V25.879Z" fill="#6C6C7D"/>
</g>
</g>
<g id="Group_5">
<g id="Group_6">
<path id="Vector_3" d="M9.72003 30.4359H5.21094C4.82263 30.4359 4.50781 30.7506 4.50781 31.139C4.50781 31.5274 4.82263 31.8422 5.21094 31.8422H9.72003C10.1083 31.8422 10.4232 31.5274 10.4232 31.139C10.4232 30.7506 10.1083 30.4359 9.72003 30.4359Z" fill="#6C6C7D"/>
</g>
</g>
<g id="Group_7">
<g id="Group_8">
<path id="Vector_4" d="M17.2357 30.4359H12.7266C12.3383 30.4359 12.0234 30.7506 12.0234 31.139C12.0234 31.5274 12.3383 31.8422 12.7266 31.8422H17.2357C17.624 31.8422 17.9388 31.5274 17.9388 31.139C17.9388 30.7506 17.624 30.4359 17.2357 30.4359Z" fill="#6C6C7D"/>
</g>
</g>
<g id="Group_9">
<g id="Group_10">
<path id="Vector_5" d="M20.2411 34.1934H5.21094C4.82262 34.1934 4.50781 34.5081 4.50781 34.8965C4.50781 35.2849 4.82262 35.5996 5.21094 35.5996H20.2412C20.6295 35.5996 20.9443 35.2849 20.9443 34.8965C20.9443 34.5081 20.6295 34.1934 20.2411 34.1934Z" fill="#6C6C7D"/>
</g>
</g>
<g id="Group_11">
<g id="Group_12">
<path id="Vector_6" d="M24.7513 30.4359H20.2422C19.8539 30.4359 19.5391 30.7506 19.5391 31.139C19.5391 31.5274 19.8539 31.8422 20.2422 31.8422H24.7513C25.1396 31.8422 25.4544 31.5274 25.4544 31.139C25.4544 30.7506 25.1396 30.4359 24.7513 30.4359Z" fill="#6C6C7D"/>
</g>
</g>
<g id="Group_13">
<g id="Group_14">
<path id="Vector_7" d="M32.2669 30.4359H27.7578C27.3695 30.4359 27.0547 30.7506 27.0547 31.139C27.0547 31.5274 27.3695 31.8422 27.7578 31.8422H32.2669C32.6552 31.8422 32.97 31.5274 32.97 31.139C32.97 30.7506 32.6552 30.4359 32.2669 30.4359Z" fill="#6C6C7D"/>
</g>
</g>
<g id="Group_15">
<g id="Group_16">
<path id="Vector_8" d="M29.2602 18.4116C28.0244 18.4116 26.9285 19.0197 26.2542 19.9517C25.5798 19.0196 24.4839 18.4116 23.2482 18.4116C21.2029 18.4116 19.5391 20.0755 19.5391 22.1207C19.5391 24.166 21.203 25.8299 23.2482 25.8299C24.484 25.8299 25.5799 25.2218 26.2542 24.2898C26.9286 25.2219 28.0245 25.8299 29.2602 25.8299C31.3054 25.8299 32.9693 24.166 32.9693 22.1207C32.9693 20.0755 31.3054 18.4116 29.2602 18.4116ZM23.2481 24.4236C21.9783 24.4236 20.9452 23.3905 20.9452 22.1207C20.9452 20.851 21.9783 19.8179 23.2481 19.8179C24.5178 19.8179 25.551 20.851 25.551 22.1207C25.551 23.3905 24.5179 24.4236 23.2481 24.4236ZM29.2602 24.4236C27.9904 24.4236 26.9573 23.3905 26.9573 22.1207C26.9573 20.851 27.9904 19.8179 29.2602 19.8179C30.5299 19.8179 31.5631 20.851 31.5631 22.1207C31.5631 23.3905 30.53 24.4236 29.2602 24.4236Z" fill="#6C6C7D"/>
</g>
</g>
<g id="Group_17">
<g id="Group_18">
<path id="Vector_9" d="M45.0428 7.13904H13.4792C11.8483 7.13904 10.5215 8.46579 10.5215 10.0967V11.5997C10.5215 11.9881 10.8363 12.3028 11.2246 12.3028H46.5941V15.4057H39.7822C39.3939 15.4057 39.079 15.7204 39.079 16.1089C39.079 16.4973 39.3939 16.812 39.7822 16.812H46.5941V31.139C46.5941 31.9945 45.8982 32.6904 45.0428 32.6904H39.782C39.3937 32.6904 39.0789 33.0051 39.0789 33.3935C39.0789 33.7819 39.3937 34.0967 39.782 34.0967H45.0428C46.6736 34.0967 48.0004 32.7699 48.0004 31.139V10.0967C48.0004 8.46588 46.6736 7.13904 45.0428 7.13904ZM46.5941 10.8965H11.9278V10.0967C11.9278 9.24129 12.6238 8.54529 13.4793 8.54529H45.0428C45.8982 8.54529 46.5941 9.24129 46.5941 10.0967V10.8965Z" fill="#6C6C7D"/>
</g>
</g>
</g>
<defs>
<clipPath id="clip0_1_1120">
<rect width="48" height="48" fill="white"/>
</clipPath>
</defs>
</svg>
