<svg width="24" height="24" viewBox="0 0 24 24" fill="none" xmlns="http://www.w3.org/2000/svg">
<g id="MapPin">
<g id="MapPin_2">
<path id="Vector (Stroke)" fill-rule="evenodd" clip-rule="evenodd" d="M12 7.25C10.6193 7.25 9.5 8.36929 9.5 9.75C9.5 11.1307 10.6193 12.25 12 12.25C13.3807 12.25 14.5 11.1307 14.5 9.75C14.5 8.36929 13.3807 7.25 12 7.25ZM8.5 9.75C8.5 7.817 10.067 6.25 12 6.25C13.933 6.25 15.5 7.817 15.5 9.75C15.5 11.683 13.933 13.25 12 13.25C10.067 13.25 8.5 11.683 8.5 9.75Z" fill="#9393A2"/>
<path id="Vector (Stroke)_2" fill-rule="evenodd" clip-rule="evenodd" d="M12 2.75C10.1435 2.75 8.36301 3.4875 7.05025 4.80025C5.7375 6.11301 5 7.89348 5 9.75C5 12.945 6.78092 15.8298 8.6273 17.9532C9.54438 19.0078 10.4627 19.8574 11.1519 20.4432C11.4962 20.7359 11.7824 20.9619 11.9814 21.114C11.9877 21.1188 11.9939 21.1235 12 21.1282C12.0061 21.1235 12.0123 21.1188 12.0186 21.114C12.2176 20.9619 12.5038 20.7359 12.8481 20.4432C13.5373 19.8574 14.4556 19.0078 15.3727 17.9532C17.2191 15.8298 19 12.945 19 9.75C19 7.89348 18.2625 6.11301 16.9497 4.80025C15.637 3.4875 13.8565 2.75 12 2.75ZM12 21.75C11.7133 22.1596 11.7131 22.1595 11.7129 22.1594L11.7124 22.159L11.7109 22.158L11.7059 22.1544L11.6878 22.1416C11.6723 22.1305 11.6498 22.1143 11.621 22.0932C11.5632 22.0511 11.4797 21.9892 11.3741 21.9085C11.163 21.7471 10.8632 21.5102 10.5043 21.2052C9.78725 20.5957 8.83062 19.7109 7.8727 18.6093C5.96908 16.4202 4 13.305 4 9.75C4 7.62827 4.84285 5.59344 6.34315 4.09315C7.84344 2.59285 9.87827 1.75 12 1.75C14.1217 1.75 16.1566 2.59285 17.6569 4.09315C19.1571 5.59344 20 7.62827 20 9.75C20 13.305 18.0309 16.4202 16.1273 18.6093C15.1694 19.7109 14.2127 20.5957 13.4957 21.2052C13.1368 21.5102 12.837 21.7471 12.6259 21.9085C12.5203 21.9892 12.4368 22.0511 12.379 22.0932C12.3502 22.1143 12.3277 22.1305 12.3122 22.1416L12.2941 22.1544L12.2891 22.158L12.2876 22.159L12.2871 22.1594C12.2869 22.1595 12.2867 22.1596 12 21.75ZM12 21.75L12.2867 22.1596C12.1146 22.2801 11.8854 22.2801 11.7133 22.1596L12 21.75Z" fill="#9393A2"/>
</g>
</g>
</svg>
